<svg id="visual" viewBox="0 0 900 600" width="900" height="600" xmlns="http://www.w3.org/2000/svg" xmlns:xlink="http://www.w3.org/1999/xlink" version="1.1"><path d="M0 151L75 151L75 103L150 103L150 181L225 181L225 61L300 61L300 169L375 169L375 163L450 163L450 91L525 91L525 199L600 199L600 79L675 79L675 187L750 187L750 139L825 139L825 115L900 115L900 205L900 0L900 0L825 0L825 0L750 0L750 0L675 0L675 0L600 0L600 0L525 0L525 0L450 0L450 0L375 0L375 0L300 0L300 0L225 0L225 0L150 0L150 0L75 0L75 0L0 0Z" fill="#69adfa"></path><path d="M0 211L75 211L75 139L150 139L150 223L225 223L225 127L300 127L300 229L375 229L375 211L450 211L450 145L525 145L525 235L600 235L600 109L675 109L675 265L750 265L750 169L825 169L825 175L900 175L900 241L900 203L900 113L825 113L825 137L750 137L750 185L675 185L675 77L600 77L600 197L525 197L525 89L450 89L450 161L375 161L375 167L300 167L300 59L225 59L225 179L150 179L150 101L75 101L75 149L0 149Z" fill="#5c9eee"></path><path d="M0 361L75 361L75 277L150 277L150 331L225 331L225 325L300 325L300 355L375 355L375 319L450 319L450 325L525 325L525 337L600 337L600 307L675 307L675 379L750 379L750 385L825 385L825 373L900 373L900 337L900 239L900 173L825 173L825 167L750 167L750 263L675 263L675 107L600 107L600 233L525 233L525 143L450 143L450 209L375 209L375 227L300 227L300 125L225 125L225 221L150 221L150 137L75 137L75 209L0 209Z" fill="#508fe2"></path><path d="M0 403L75 403L75 331L150 331L150 373L225 373L225 373L300 373L300 397L375 397L375 355L450 355L450 361L525 361L525 379L600 379L600 337L675 337L675 403L750 403L750 409L825 409L825 403L900 403L900 367L900 335L900 371L825 371L825 383L750 383L750 377L675 377L675 305L600 305L600 335L525 335L525 323L450 323L450 317L375 317L375 353L300 353L300 323L225 323L225 329L150 329L150 275L75 275L75 359L0 359Z" fill="#4480d6"></path><path d="M0 463L75 463L75 451L150 451L150 445L225 445L225 487L300 487L300 517L375 517L375 499L450 499L450 457L525 457L525 469L600 469L600 493L675 493L675 511L750 511L750 481L825 481L825 493L900 493L900 433L900 365L900 401L825 401L825 407L750 407L750 401L675 401L675 335L600 335L600 377L525 377L525 359L450 359L450 353L375 353L375 395L300 395L300 371L225 371L225 371L150 371L150 329L75 329L75 401L0 401Z" fill="#3971ca"></path><path d="M0 541L75 541L75 535L150 535L150 547L225 547L225 553L300 553L300 571L375 571L375 541L450 541L450 529L525 529L525 541L600 541L600 529L675 529L675 559L750 559L750 517L825 517L825 571L900 571L900 517L900 431L900 491L825 491L825 479L750 479L750 509L675 509L675 491L600 491L600 467L525 467L525 455L450 455L450 497L375 497L375 515L300 515L300 485L225 485L225 443L150 443L150 449L75 449L75 461L0 461Z" fill="#2e62bd"></path><path d="M0 601L75 601L75 601L150 601L150 601L225 601L225 601L300 601L300 601L375 601L375 601L450 601L450 601L525 601L525 601L600 601L600 601L675 601L675 601L750 601L750 601L825 601L825 601L900 601L900 601L900 515L900 569L825 569L825 515L750 515L750 557L675 557L675 527L600 527L600 539L525 539L525 527L450 527L450 539L375 539L375 569L300 569L300 551L225 551L225 545L150 545L150 533L75 533L75 539L0 539Z" fill="#2354b0"></path></svg>